<?xml version="1.0" encoding="utf-8"?>
<!-- Generator: Adobe Illustrator 24.0.1, SVG Export Plug-In . SVG Version: 6.00 Build 0)  -->
<svg version="1.1" id="Layer_1" xmlns="http://www.w3.org/2000/svg" xmlns:xlink="http://www.w3.org/1999/xlink" x="0px" y="0px"
	 viewBox="0 0 700 700" enable-background="new 0 0 700 700" xml:space="preserve">
<g>
	<path fill="#FFFFFF" d="M130.915,476.565c13.391,0,23.648,2.382,30.774,7.146c7.124,4.764,10.687,12.168,10.687,22.211
		c0,6.268-1.438,11.353-4.313,15.259c-2.877,3.907-7.018,6.975-12.425,9.206c1.803,2.233,3.69,4.786,5.666,7.661
		c1.974,2.877,3.927,5.881,5.858,9.014c1.932,3.135,3.799,6.396,5.601,9.786c1.803,3.392,3.477,6.717,5.022,9.979h-22.455
		c-1.637-2.917-3.297-5.879-4.977-8.885c-1.68-3.004-3.402-5.923-5.168-8.756c-1.767-2.832-3.513-5.515-5.235-8.047
		c-1.724-2.531-3.448-4.829-5.17-6.889h-9.915v32.576h-20.087v-87.944c4.378-0.856,8.905-1.458,13.584-1.802
		C123.039,476.738,127.223,476.565,130.915,476.565z M132.074,493.69c-1.46,0-2.768,0.045-3.927,0.129
		c-1.159,0.087-2.253,0.173-3.283,0.258v24.207h5.666c7.553,0,12.96-0.943,16.224-2.833c3.262-1.887,4.893-5.105,4.893-9.657
		c0-4.378-1.654-7.488-4.957-9.335C143.383,494.614,138.512,493.69,132.074,493.69z"/>
	<path fill="#FFFFFF" d="M182.935,533.477c0-6.007,0.921-11.267,2.768-15.772c1.845-4.507,4.27-8.261,7.275-11.267
		c3.004-3.004,6.458-5.279,10.366-6.824c3.905-1.546,7.918-2.318,12.039-2.318c9.613,0,17.209,2.941,22.791,8.82
		c5.579,5.881,8.37,14.53,8.37,25.945c0,1.117-0.044,2.34-0.129,3.67c-0.086,1.332-0.173,2.511-0.257,3.541h-43.521
		c0.429,3.949,2.273,7.082,5.537,9.399c3.262,2.317,7.639,3.477,13.134,3.477c3.519,0,6.973-0.322,10.365-0.966
		c3.39-0.644,6.159-1.437,8.305-2.382l2.575,15.58c-1.03,0.515-2.404,1.03-4.12,1.545c-1.718,0.515-3.627,0.966-5.73,1.352
		c-2.104,0.387-4.358,0.709-6.76,0.966c-2.404,0.258-4.808,0.387-7.21,0.387c-6.096,0-11.396-0.901-15.902-2.704
		c-4.507-1.803-8.241-4.27-11.202-7.403c-2.962-3.133-5.151-6.845-6.567-11.139C183.643,543.092,182.935,538.456,182.935,533.477z
		 M228.001,526.138c-0.086-1.63-0.366-3.219-0.837-4.765c-0.473-1.545-1.203-2.917-2.189-4.12c-0.988-1.201-2.233-2.188-3.734-2.961
		c-1.503-0.773-3.37-1.159-5.601-1.159c-2.146,0-3.992,0.366-5.537,1.095c-1.545,0.73-2.833,1.695-3.863,2.896
		c-1.03,1.203-1.825,2.598-2.382,4.185c-0.559,1.59-0.965,3.199-1.223,4.829H228.001z"/>
	<path fill="#FFFFFF" d="M285.686,497.295c5.666,0,10.385,0.644,14.164,1.932c3.776,1.287,6.802,3.135,9.078,5.537
		c2.273,2.404,3.883,5.323,4.829,8.755c0.944,3.435,1.417,7.255,1.417,11.46v39.916c-2.748,0.602-6.567,1.31-11.46,2.125
		c-4.893,0.814-10.816,1.223-17.769,1.223c-4.377,0-8.349-0.386-11.91-1.158c-3.563-0.772-6.631-2.038-9.207-3.799
		c-2.575-1.759-4.551-4.056-5.923-6.889c-1.374-2.833-2.06-6.31-2.06-10.43c0-3.947,0.792-7.295,2.382-10.043
		c1.587-2.746,3.712-4.936,6.374-6.567c2.66-1.63,5.708-2.811,9.142-3.541c3.433-0.728,6.996-1.094,10.688-1.094
		c2.489,0,4.7,0.108,6.631,0.321c1.932,0.216,3.497,0.495,4.7,0.837v-1.803c0-3.261-0.988-5.879-2.962-7.854
		c-1.976-1.974-5.408-2.961-10.301-2.961c-3.263,0-6.482,0.237-9.657,0.708c-3.177,0.473-5.923,1.139-8.241,1.996l-2.446-15.452
		c1.115-0.342,2.511-0.708,4.185-1.094c1.674-0.387,3.497-0.729,5.473-1.03c1.974-0.3,4.056-0.558,6.245-0.772
		C281.243,497.404,283.452,497.295,285.686,497.295z M287.231,553.435c1.887,0,3.689-0.042,5.408-0.128
		c1.716-0.085,3.09-0.214,4.121-0.387v-14.55c-0.773-0.171-1.932-0.342-3.477-0.516c-1.545-0.171-2.962-0.257-4.25-0.257
		c-1.802,0-3.499,0.108-5.086,0.321c-1.589,0.216-2.983,0.624-4.185,1.224c-1.203,0.602-2.147,1.416-2.833,2.446
		c-0.688,1.03-1.03,2.317-1.03,3.863c0,3.006,1.008,5.086,3.026,6.244C280.942,552.856,283.71,553.435,287.231,553.435z"/>
	<path fill="#FFFFFF" d="M359.594,568.115c-5.581-0.087-10.108-0.688-13.584-1.803c-3.477-1.115-6.225-2.683-8.241-4.7
		c-2.018-2.016-3.392-4.462-4.12-7.34c-0.73-2.875-1.095-6.115-1.095-9.721v-74.553l19.186-3.091v73.78
		c0,1.719,0.129,3.264,0.386,4.636c0.257,1.374,0.75,2.533,1.481,3.477c0.728,0.945,1.78,1.718,3.154,2.317
		c1.372,0.602,3.219,0.988,5.537,1.159L359.594,568.115z"/>
	<path fill="#FFFFFF" d="M401.203,566.827c-3.553-7.494-7.056-15.272-10.51-23.334c-3.457-8.06-6.738-16.035-9.846-23.926
		c-3.11-7.889-5.967-15.44-8.575-22.655s-4.861-13.653-6.756-19.316h22.147c1.67,5.166,3.527,10.729,5.571,16.685
		c2.044,5.957,4.128,11.895,6.249,17.81c2.121,5.917,4.152,11.584,6.096,17.004c1.943,5.42,3.804,10.1,5.583,14.041
		c1.676-3.915,3.509-8.582,5.497-14.003c1.987-5.418,4.043-11.085,6.164-17.002c2.121-5.915,4.201-11.853,6.245-17.81
		c2.044-5.955,3.905-11.53,5.583-16.725h21.385c-2,5.691-4.299,12.138-6.9,19.336c-2.602,7.201-5.447,14.749-8.537,22.646
		c-3.09,7.898-6.35,15.882-9.782,23.951c-3.433,8.07-6.919,15.836-10.456,23.298H401.203z"/>
	<path fill="#FFFFFF" d="M521.316,564.509c-3.264,0.945-7.468,1.824-12.619,2.64c-5.15,0.814-10.558,1.223-16.224,1.223
		c-5.752,0-10.538-0.772-14.356-2.317c-3.821-1.545-6.847-3.712-9.078-6.503c-2.233-2.788-3.82-6.116-4.764-9.979
		c-0.946-3.863-1.417-8.112-1.417-12.747v-37.728h19.186v35.409c0,6.181,0.815,10.646,2.446,13.392
		c1.63,2.748,4.678,4.12,9.143,4.12c1.372,0,2.833-0.064,4.378-0.193s2.917-0.277,4.12-0.45v-52.277h19.186V564.509z"/>
	<path fill="#FFFFFF" d="M536.122,533.477c0-6.007,0.922-11.267,2.769-15.772c1.845-4.507,4.27-8.261,7.275-11.267
		c3.004-3.004,6.458-5.279,10.365-6.824c3.905-1.546,7.919-2.318,12.039-2.318c9.612,0,17.21,2.941,22.791,8.82
		c5.578,5.881,8.369,14.53,8.369,25.945c0,1.117-0.044,2.34-0.129,3.67c-0.086,1.332-0.173,2.511-0.258,3.541h-43.521
		c0.428,3.949,2.273,7.082,5.536,9.399c3.262,2.317,7.64,3.477,13.134,3.477c3.519,0,6.974-0.322,10.365-0.966
		c3.391-0.644,6.158-1.437,8.306-2.382l2.575,15.58c-1.03,0.515-2.404,1.03-4.121,1.545c-1.718,0.515-3.627,0.966-5.729,1.352
		c-2.104,0.387-4.357,0.709-6.76,0.966c-2.404,0.258-4.809,0.387-7.211,0.387c-6.096,0-11.396-0.901-15.902-2.704
		c-4.506-1.803-8.24-4.27-11.202-7.403c-2.961-3.133-5.15-6.845-6.566-11.139C536.83,543.092,536.122,538.456,536.122,533.477z
		 M581.188,526.138c-0.086-1.63-0.366-3.219-0.837-4.765c-0.473-1.545-1.203-2.917-2.188-4.12c-0.988-1.201-2.233-2.188-3.734-2.961
		c-1.503-0.773-3.37-1.159-5.601-1.159c-2.147,0-3.992,0.366-5.537,1.095c-1.545,0.73-2.833,1.695-3.863,2.896
		c-1.029,1.203-1.824,2.598-2.382,4.185c-0.56,1.59-0.966,3.199-1.223,4.829H581.188z"/>
</g>
<g>
	<path fill="#FFFFFF" d="M620.977,209.963c-3.382-4.347-6.745-8.695-10.121-13.042C554.531,124.337,470.62,82.068,378.967,77.531
		c-65.447-3.243-132.72,13.768-187.153,50.632c-33.019,22.354-59.874,51.253-79.56,85.893
		c25.603-23.437,53.091-43.446,84.652-58.257c40.509-19,84.52-28.463,129.118-29.868c67.079-2.113,136.492,17.423,190.391,57.822
		c8.128,6.084,15.957,12.571,23.369,19.512c3.872,3.624,7.623,7.363,11.198,11.283c-3.281,3.512-6.519,7.025-9.883,10.458
		c-6.767,6.909-13.95,13.322-21.44,19.412c-27.721,22.518-60.524,39.981-94.746,50.799c6.619-12.102,10.389-25.973,10.389-40.705
		c0-20.764-7.495-39.796-19.881-54.586c4.068,0.412,8.14,0.824,12.187,1.373c21.097,2.874,41.201,8.257,61.732,13.65
		c-113.456-75.417-271.035-61.295-370.688,31.434c-12.138,11.171-22.554,23.896-32.982,36.621c-3.074,3.75-6.148,7.49-9.217,11.24
		c-1.411,1.728,3.333,5.9,4.5,7.405c22.952,29.591,47.138,56.509,78.451,77.609c59.978,40.419,132.535,57.46,204.267,51.956
		c91.209-7.014,178.723-55.254,224.398-135.723c-4.216,3.856-8.431,7.722-12.645,11.578
		c-35.201,28.772-73.661,51.079-117.562,63.777c-35.02,10.154-70.771,13.44-107.074,12.543
		c-73.708-1.806-151.382-33.677-201.446-88.385c15.682-16.807,32.253-32.158,51.585-44.751c23.39-15.233,47.915-26.326,73.677-34.83
		c-6.086,11.721-9.583,24.995-9.583,39.088c0,20.949,7.638,40.123,20.231,54.967c-22.427-2.134-44.73-6.339-66.661-12.741
		c-2.529-0.74-5.06-1.469-7.606-2.139c113.355,75.393,271.157,61.363,370.688-31.434c14.473-13.311,26.606-28.819,39.035-43.99
		C624.736,214.252,624.853,214.971,620.977,209.963z M350.159,204.771c27.44,0,49.748,22.306,49.748,49.742
		c0,27.425-22.308,49.737-49.748,49.737c-27.425,0-49.737-22.312-49.737-49.737C300.421,227.077,322.734,204.771,350.159,204.771z"
		/>
	<path fill="#FFFFFF" d="M373.41,274.131c-10.843,0-19.627-8.784-19.627-19.618c0-10.839,8.784-19.618,19.627-19.618
		c0.408,0,0.783,0.095,1.184,0.117c-5.757-7.194-14.5-11.895-24.435-11.895c-17.337,0-31.397,14.056-31.397,31.397
		c0,17.337,14.06,31.397,31.397,31.397c9.935,0,18.678-4.701,24.435-11.906C374.193,274.036,373.819,274.131,373.41,274.131z"/>
</g>
</svg>
